<?xml version="1.0" encoding="UTF-8" standalone="no"?>
<svg
   height="206.07207"
   width="923.0769"
   viewBox="-76.185 -28.34675 507.89999 43.81105"
   version="1.1"
   id="svg105"
   sodipodi:docname="YouTube-Logo.svg"
   inkscape:version="1.1.1 (3bf5ae0d25, 2021-09-20)"
   xmlns:inkscape="http://www.inkscape.org/namespaces/inkscape"
   xmlns:sodipodi="http://sodipodi.sourceforge.net/DTD/sodipodi-0.dtd"
   xmlns="http://www.w3.org/2000/svg"
   xmlns:svg="http://www.w3.org/2000/svg">
  <defs
     id="defs109" />
  <sodipodi:namedview
     id="namedview107"
     pagecolor="#ffffff"
     bordercolor="#666666"
     borderopacity="1.0"
     inkscape:pageshadow="2"
     inkscape:pageopacity="0.0"
     inkscape:pagecheckerboard="0"
     showgrid="false"
     inkscape:zoom="1.0433333"
     inkscape:cx="461.5016"
     inkscape:cy="103.03514"
     inkscape:window-width="1704"
     inkscape:window-height="1341"
     inkscape:window-x="-8"
     inkscape:window-y="0"
     inkscape:window-maximized="0"
     inkscape:current-layer="svg105" />
  <path
     d="m 81.882628,-44.963409 a 20.285,20.285 0 0 0 -14.32,-14.32 c -12.633,-3.385 -63.2850002,-3.385 -63.2850002,-3.385 0,0 -50.6529998,0 -63.2849998,3.385 a 20.286,20.286 0 0 0 -14.32,14.32 c -3.385,12.633 -3.385,38.9880001 -3.385,38.9880001 0,0 0,26.3559999 3.385,38.9869999 a 20.285,20.285 0 0 0 14.32,14.32 c 12.632,3.386 63.2849998,3.386 63.2849998,3.386 0,0 50.6520002,0 63.2850002,-3.386 a 20.284,20.284 0 0 0 14.32,-14.32 c 3.385,-12.632 3.385,-38.9879999 3.385,-38.9879999 0,0 0,-26.3550001 -3.385,-38.9880001"
     fill="#ff0000"
     id="path99" />
  <path
     d="m -11.920372,18.321591 42.082,-24.2969999 -42.082,-24.2970001 z m 188.276002,11.04 c 0.887,-2.314 1.332,-6.098 1.332,-11.35 V -4.1124089 c 0,-5.097 -0.445,-8.8220001 -1.332,-11.1780001 -0.888,-2.355 -2.452,-3.533 -4.69,-3.533 -2.163,0 -3.69,1.178 -4.577,3.533 -0.888,2.356 -1.332,6.0810001 -1.332,11.1780001 V 18.011591 c 0,5.25 0.424,9.035 1.275,11.35 0.848,2.318 2.392,3.475 4.633,3.475 2.239,0 3.803,-1.157 4.691,-3.475 z m -17.953,11.122 c -3.207,-2.16 -5.486,-5.52 -6.835,-10.079 -1.352,-4.554 -2.027,-10.617 -2.027,-18.185 V 1.9095911 c 0,-7.644 0.771,-13.7840001 2.316,-18.4170001 1.544,-4.633 3.956,-8.011 7.24,-10.135 3.282,-2.123 7.587,-3.186 12.916,-3.186 5.251,0 9.459,1.082 12.626,3.243 3.165,2.162 5.482,5.542 6.95,10.136 1.466,4.595 2.2,10.7150001 2.2,18.3600001 V 12.220591 c 0,7.567 -0.714,13.65 -2.142,18.243 -1.43,4.595 -3.747,7.955 -6.951,10.077 -3.205,2.124 -7.548,3.186 -13.03,3.186 -5.64,0 -10.06,-1.082 -13.263,-3.243 m 248.053,-57.981 c -0.81,1.005 -1.352,2.646 -1.621,4.923 -0.272,2.278 -0.404,5.7340001 -0.404,10.3670001 v 5.097 h 11.697 v -5.098 c 0,-4.555 -0.155,-8.0110001 -0.463,-10.3670001 -0.309,-2.355 -0.868,-4.014 -1.678,-4.98 -0.812,-0.966 -2.067,-1.449 -3.766,-1.449 -1.7,0 -2.954,0.503 -3.765,1.506 z m -2.025,29.886 v 3.591 c 0,4.557 0.132,7.974 0.404,10.251 0.269,2.279 0.828,3.94 1.68,4.982 0.849,1.041 2.16,1.564 3.938,1.564 2.392,0 4.035,-0.927 4.923,-2.781 0.887,-1.853 1.37,-4.942 1.447,-9.268 l 13.785,0.812 c 0.077,0.62 0.116,1.469 0.116,2.548 0,6.565 -1.795,11.47 -5.387,14.712 -3.589,3.242 -8.669,4.865 -15.232,4.865 -7.876,0 -13.398,-2.47 -16.564,-7.414 -3.168,-4.94 -4.75,-12.586 -4.75,-22.935 V 0.92059112 c 0,-10.65700002 1.641,-18.43600012 4.924,-23.34200012 3.281,-4.903 8.9,-7.355 16.854,-7.355 5.482,0 9.691,1.004 12.626,3.012 2.933,2.01 5,5.137 6.197,9.383 1.197,4.247 1.796,10.1170001 1.796,17.60700012 V 12.388591 h -26.757 m -284.953,-1.33 -18.187,-65.68 h 15.869 l 6.37,29.77 c 1.623,7.339 2.82,13.594 3.591,18.7660001 h 0.464 c 0.54,-3.706 1.738,-9.9220001 3.591,-18.6500001 l 6.603,-29.886 h 15.869 l -18.417,65.68 v 31.51 h -15.754 v -31.51 m 125.926,-39.497 v 71.007 h -12.511 l -1.39,-8.688 h -0.347 c -3.399,6.564 -8.496,9.845 -15.291,9.845 -4.71,0 -8.185,-1.543 -10.425,-4.633 -2.24,-3.087 -3.359,-7.915 -3.359,-14.48 v -53.051 h 15.985 v 52.126 c 0,3.168 0.348,5.426 1.043,6.776 0.695,1.353 1.853,2.027 3.475,2.027 1.39,0 2.722,-0.423 3.996,-1.275 1.274,-0.849 2.22,-1.928 2.838,-3.241 v -56.414 h 15.986 m 81.995,0.001 v 71.007 h -12.511 l -1.391,-8.688 h -0.345 c -3.402,6.564 -8.498,9.845 -15.292,9.845 -4.711,0 -8.186,-1.543 -10.426,-4.633 -2.24,-3.087 -3.358,-7.915 -3.358,-14.48 v -53.051 h 15.985 v 52.126 c 0,3.168 0.347,5.426 1.041,6.776 0.696,1.353 1.855,2.027 3.476,2.027 1.391,0 2.723,-0.423 3.996,-1.275 1.275,-0.849 2.22,-1.928 2.839,-3.241 v -56.414 h 15.985"
     fill="#ffffff"
     id="path101" />
  <path
     d="m 288.83963,-41.760409 h -15.87 v 84.329 h -15.637 v -84.33 h -15.869 v -12.857 h 47.376 v 12.858 m 76.811,53.636 c 0,5.174 -0.215,9.229 -0.639,12.162 -0.424,2.937 -1.139,5.021 -2.143,6.255 -1.004,1.236 -2.357,1.854 -4.053,1.854 a 7.404,7.404 0 0 1 -3.65,-0.927 c -1.12,-0.618 -2.026,-1.544 -2.722,-2.78 v -40.312 c 0.54,-1.93 1.467,-3.513 2.78,-4.749 1.313,-1.234 2.74,-1.853 4.285,-1.853 1.623,0 2.876,0.637 3.766,1.91 0.886,1.275 1.505,3.418 1.853,6.43 0.348,3.0110001 0.523,7.2970001 0.523,12.8570001 z m 14.652,-28.964 c -0.967,-4.478 -2.531,-7.721 -4.692,-9.73 -2.163,-2.007 -5.136,-3.011 -8.919,-3.011 -2.935,0 -5.676,0.83 -8.224,2.49 a 16.926,16.926 0 0 0 -5.908,6.545 h -0.117 l 10e-4,-37.416 h -15.405 v 100.777 h 13.204 l 1.622,-6.717 h 0.347 c 1.235,2.393 3.088,4.285 5.56,5.675 2.47,1.39 5.213,2.085 8.225,2.085 5.404,0 9.382,-2.491 11.931,-7.471 2.548,-4.982 3.823,-12.76 3.823,-23.341 V 1.5615911 c 0,-7.953 -0.484,-14.1700001 -1.448,-18.6500001"
     fill="#ffffff"
     id="path103" />
</svg>
